<?xml version="1.0" encoding="utf-8"?>
<!-- Generator: Adobe Illustrator 27.5.0, SVG Export Plug-In . SVG Version: 6.00 Build 0)  -->
<svg version="1.1" xmlns="http://www.w3.org/2000/svg" xmlns:xlink="http://www.w3.org/1999/xlink" x="0px" y="0px"
	 viewBox="0 0 500 500" style="enable-background:new 0 0 500 500;" xml:space="preserve">
<g id="BACKGROUND">
	<rect style="fill:#F9FBFC;" width="500" height="500"/>
</g>
<g id="OBJECTS">
	<g>
		<path style="fill:#F0F5F7;" d="M417.333,365.814H82.667c-2.434,0-4.426-1.992-4.426-4.426l0,0c0-2.434,1.992-4.426,4.426-4.426
			h334.665c2.434,0,4.426,1.992,4.426,4.426l0,0C421.759,363.822,419.767,365.814,417.333,365.814z"/>
		<rect x="62.867" y="87.061" style="fill:#DCE8EF;" width="373.956" height="237.29"/>
		<rect x="68.996" y="108.425" style="fill:#C3D3DD;" width="361.697" height="209.757"/>
		<path style="fill:#FBD15B;" d="M124.55,242.921l9.878-7.643c1.813-1.403,2.146-4.011,0.743-5.824l-7.643-9.878
			c3.066-2.372,3.632-6.783,1.257-9.853c-2.373-3.066-6.787-3.629-9.853-1.257l-7.64-9.874c-1.403-1.813-4.011-2.146-5.824-0.743
			l-9.882,7.646c-0.022-0.036-0.048-0.07-0.074-0.103c-2.372-3.066-6.783-3.632-9.853-1.257c-3.066,2.372-3.629,6.787-1.257,9.853
			c0.026,0.033,0.052,0.067,0.081,0.097l-9.878,7.643c-1.813,1.403-2.146,4.011-0.743,5.824l7.64,9.874
			c3.066-2.373,7.481-1.809,9.853,1.257c2.375,3.07,1.809,7.48-1.257,9.853l7.643,9.878c1.403,1.813,4.01,2.146,5.824,0.743
			l9.874-7.64c-2.372-3.066-1.81-7.48,1.257-9.853C117.767,239.288,122.178,239.854,124.55,242.921z"/>
		<g>
			<path style="fill:#878CF0;" d="M382.5,216.302c8.554-1.49,20.319-0.139,26.465-7.635c1.32-1.61,2.584-3.475,3.186-5.497
				c0.602-2.021,0.414-4.186-0.701-5.013c-0.909-0.675-2.303-0.48-2.93-1.55c-0.525-0.896-0.321-2.415,0.22-3.661
				c0.541-1.247,1.364-2.288,2.169-3.294c1.987-2.484,4.075-5.126,4.974-8.492c0.9-3.366-0.03-7.5-2.299-7.918
				c-1.329-0.245-2.898,0.675-3.985-0.306c-1.017-0.918-1.054-3.022-0.618-4.69c0.435-1.668,1.236-3.146,1.663-4.834
				c0.682-2.694,0.282-5.843-1.003-8.085c-1.285-2.243-3.378-3.507-5.397-3.443C405.926,176.114,398.524,198.038,382.5,216.302z"/>
			<path style="fill:#929CF4;" d="M382.5,216.302c0.868-8.237-4.891-16.4-3.237-24.217c0.284-1.342,0.769-2.748,1.655-3.833
				c0.887-1.085,2.329-1.844,3.66-1.524c1.085,0.26,1.986,1.23,3.122,1.098c0.952-0.111,1.758-1.044,2.076-2.057
				c0.318-1.014,0.242-2.085,0.112-3.1c-0.321-2.507-0.944-4.988-0.527-7.454c0.416-2.466,2.353-5.032,4.646-4.777
				c1.343,0.15,2.606,1.312,3.915,0.791c1.225-0.487,1.786-2.323,1.654-3.86c-0.131-1.536-0.743-2.922-1.048-4.404
				c-0.487-2.365-0.164-4.974,0.888-7.076c1.052-2.1,2.838-3.665,4.829-4.005C405.926,176.114,398.524,198.038,382.5,216.302z"/>
			<path style="fill:#56548C;" d="M404.737,155.591c0.239,6.436-0.17,12.907-1.29,19.264c-0.237,1.598-0.635,3.164-0.971,4.744
				c-0.157,0.793-0.392,1.566-0.599,2.347l-0.636,2.338l-0.748,2.305c-0.256,0.766-0.48,1.544-0.783,2.294
				c-0.586,1.506-1.11,3.038-1.789,4.507c-2.555,5.941-5.771,11.603-9.556,16.856l-1.461,1.939c-0.492,0.643-0.959,1.304-1.489,1.92
				l-1.55,1.877l-0.779,0.937l-0.831,0.901c-1.112,1.184-2.254,2.34-3.458,3.445c-0.6,0.554-1.218,1.092-1.854,1.616
				c-0.319,0.261-0.643,0.519-0.978,0.769c-0.344,0.255-0.655,0.485-1.074,0.744c-0.441,0.273-1.02,0.136-1.292-0.305
				c-0.273-0.441-0.136-1.02,0.305-1.292c0.003-0.002,0.006-0.004,0.009-0.006l0.038-0.023c0.266-0.158,0.61-0.395,0.913-0.615
				c0.312-0.225,0.621-0.462,0.927-0.704c0.611-0.486,1.212-0.993,1.801-1.518c1.18-1.046,2.313-2.158,3.418-3.296l0.816-0.855
				l0.775-0.903l1.546-1.811c0.528-0.593,0.998-1.237,1.492-1.861l1.468-1.883c3.807-5.104,7.062-10.62,9.676-16.432
				c0.694-1.436,1.234-2.937,1.836-4.413c0.312-0.734,0.545-1.498,0.81-2.249l0.776-2.263l0.666-2.298
				c0.217-0.767,0.462-1.528,0.63-2.308c0.357-1.555,0.777-3.097,1.037-4.673c1.211-6.27,1.725-12.678,1.593-19.077
				c-0.004-0.168,0.128-0.307,0.296-0.311C404.591,155.294,404.729,155.426,404.737,155.591z"/>
		</g>
		<g>
			<path style="fill:#878CF0;" d="M375.594,249.48c9.958,3.288,21.715,11.431,32.531,6.951c2.323-0.962,4.733-2.228,6.525-4.038
				c1.793-1.81,2.826-4.221,2.111-5.738c-0.583-1.237-2.178-1.824-2.236-3.32c-0.049-1.254,1.034-2.754,2.32-3.773
				c1.287-1.019,2.757-1.659,4.187-2.271c3.531-1.513,7.26-3.136,10.136-6.208c2.876-3.072,4.242-8.003,2.064-9.741
				c-1.276-1.018-3.471-0.933-4.069-2.597c-0.56-1.556,0.6-3.818,2.014-5.346c1.414-1.528,3.109-2.646,4.526-4.199
				c2.261-2.48,3.629-6.061,3.539-9.18c-0.09-3.12-1.599-5.659-3.784-6.742C423.44,220.036,403.064,239.164,375.594,249.48z"/>
			<path style="fill:#929CF4;" d="M375.594,249.48c5.619-8.276,4.138-20.25,10.353-27.632c1.068-1.267,2.384-2.488,3.947-3.138
				c1.563-0.65,3.53-0.636,4.766,0.463c1.007,0.896,1.414,2.442,2.699,2.948c1.077,0.424,2.467-0.11,3.383-1.008
				c0.916-0.898,1.446-2.082,1.886-3.237c1.087-2.853,1.837-5.849,3.687-8.238c1.848-2.389,5.374-4.018,7.669-2.439
				c1.345,0.925,2.027,2.882,3.717,3.073c1.582,0.179,3.226-1.456,3.961-3.167c0.736-1.711,0.874-3.535,1.393-5.287
				c0.829-2.796,2.66-5.39,4.978-7.028c2.317-1.637,5.111-2.285,7.425-1.513C423.44,220.036,403.064,239.164,375.594,249.48z"/>
			<path style="fill:#56548C;" d="M433.868,197.505c-3.414,6.99-7.536,13.646-12.352,19.778c-1.163,1.566-2.479,3.008-3.737,4.498
				c-0.619,0.755-1.31,1.444-1.975,2.158l-2.01,2.127l-2.11,2.029c-0.709,0.67-1.391,1.371-2.141,1.996
				c-1.482,1.27-2.913,2.603-4.473,3.78c-6.106,4.871-12.757,9.067-19.782,12.503l-2.661,1.232c-0.89,0.404-1.765,0.842-2.68,1.196
				l-2.72,1.116l-1.363,0.554l-1.398,0.485c-1.859,0.626-3.733,1.208-5.646,1.698c-0.955,0.248-1.919,0.469-2.896,0.664
				c-0.489,0.096-0.98,0.186-1.479,0.261c-0.511,0.076-0.974,0.143-1.568,0.18c-0.625,0.039-1.163-0.436-1.202-1.061
				c-0.039-0.625,0.436-1.163,1.061-1.202c0.004,0,0.009,0,0.013-0.001l0.053-0.003c0.374-0.017,0.874-0.073,1.322-0.135
				c0.46-0.061,0.924-0.138,1.388-0.222c0.928-0.169,1.857-0.366,2.783-0.59c1.852-0.442,3.693-0.979,5.518-1.561l1.356-0.445
				l1.34-0.52l2.679-1.047c0.9-0.331,1.768-0.748,2.649-1.131l2.637-1.168c6.962-3.265,13.572-7.284,19.667-11.983
				c1.557-1.134,2.988-2.424,4.47-3.653c0.751-0.604,1.433-1.284,2.144-1.934l2.116-1.967l2.018-2.068
				c0.668-0.694,1.363-1.363,1.986-2.099c1.267-1.452,2.592-2.855,3.768-4.385c4.863-5.986,9.061-12.517,12.567-19.406
				c0.091-0.181,0.312-0.254,0.493-0.163C433.883,197.106,433.955,197.325,433.868,197.505z"/>
		</g>
		<g>
			<path style="fill:#A5B7C6;" d="M390.633,285.451c-0.167-2.794-0.97-5.477-2.304-7.87l2.283-1.272
				c-1.144-2.053-2.63-3.915-4.409-5.496l-1.738,1.956c-2.008-1.785-4.429-3.166-7.185-3.952l0.712-2.502l-0.033-0.009
				c-1.911-0.541-3.842-0.8-5.74-0.8c-0.413,0-0.825,0.012-1.234,0.036l0.154,2.609c-2.794,0.165-5.479,0.966-7.872,2.298
				l-1.271-2.284c-2.054,1.143-3.917,2.627-5.5,4.404l1.954,1.74c-1.786,2.007-3.169,4.427-3.957,7.182l-2.502-0.714l-0.014,0.049
				c-0.541,1.911-0.8,3.842-0.8,5.74c0,0.408,0.012,0.813,0.035,1.217l2.609-0.152c0.163,2.795,0.961,5.48,2.291,7.874l-2.284,1.268
				c1.141,2.055,2.624,3.92,4.4,5.503l1.741-1.953c2.006,1.788,4.425,3.172,7.179,3.962l-0.717,2.503l0.066,0.019
				c1.911,0.541,3.841,0.8,5.74,0.8c0.424,0,0.847-0.013,1.268-0.038l-0.158-2.608c2.794-0.169,5.477-0.975,7.868-2.311l1.274,2.282
				c2.052-1.146,3.913-2.634,5.492-4.413l-1.957-1.736c1.783-2.01,3.163-4.432,3.947-7.189l2.502,0.71l0.004-0.016
				c0.541-1.911,0.8-3.842,0.8-5.74c0-0.419-0.012-0.836-0.037-1.252L390.633,285.451z M367.657,302.711L367.657,302.711
				l0.129-0.454L367.657,302.711z M382.959,289.593c-1.387,4.912-5.865,8.118-10.725,8.12c-1.004,0-2.025-0.137-3.043-0.425
				c-4.913-1.387-8.119-5.865-8.12-10.725c0-1.004,0.137-2.025,0.425-3.043c1.387-4.913,5.865-8.118,10.725-8.12
				c1.004,0,2.025,0.137,3.043,0.425c4.912,1.387,8.118,5.865,8.119,10.725C383.384,287.554,383.247,288.575,382.959,289.593z"/>
			<polygon style="fill:#A5B7C6;" points="423.794,268.547 423.794,268.547 423.794,268.547 			"/>
			<path style="fill:#A5B7C6;" d="M422.667,277.504l-1.738,0.339c-0.264-1.351-0.732-2.642-1.392-3.834l1.545-0.856
				c-1.117-2.018-2.703-3.777-4.662-5.102l-0.986,1.458c-1.107-0.749-2.343-1.345-3.695-1.736l0.486-1.683l-0.077-0.022
				c-1.345-0.381-2.706-0.563-4.044-0.563c-0.944,0-1.876,0.091-2.786,0.266l0.334,1.737c-1.352,0.26-2.645,0.725-3.839,1.382
				l-0.85-1.546c-2.021,1.112-3.785,2.693-5.115,4.648l1.453,0.989c-0.752,1.105-1.347,2.342-1.742,3.693l-1.684-0.491l-0.034,0.116
				c-0.381,1.345-0.564,2.705-0.564,4.044c0,0.93,0.088,1.849,0.258,2.746l1.736-0.329c0.257,1.353,0.718,2.648,1.372,3.843
				l-1.546,0.845h0c1.107,2.024,2.683,3.792,4.634,5.127l0.991-1.449c1.103,0.754,2.341,1.348,3.69,1.747l-0.496,1.685h0
				l0.155,0.045c1.346,0.381,2.706,0.563,4.044,0.563c0.971,0,1.93-0.096,2.865-0.281l-0.344-1.739c1.35-0.268,2.64-0.74,3.83-1.403
				l0.861,1.545c2.014-1.122,3.77-2.713,5.09-4.676l-1.463-0.983c0.746-1.109,1.343-2.344,1.731-3.698l1.681,0.48l0.011-0.038
				c0.381-1.346,0.563-2.706,0.563-4.044C422.941,279.372,422.847,278.427,422.667,277.504z M408.115,289.164
				c-0.794,0-1.601-0.108-2.408-0.336c-3.887-1.096-6.424-4.642-6.425-8.486c0-0.794,0.108-1.601,0.336-2.408
				c1.096-3.887,4.642-6.423,8.486-6.425c0.794,0,1.601,0.108,2.409,0.337c3.887,1.095,6.423,4.642,6.424,8.485
				c0,0.794-0.108,1.601-0.336,2.409C415.505,286.626,411.959,289.163,408.115,289.164z"/>
		</g>
		<rect x="62.867" y="87.061" style="fill:#A5B7C6;" width="373.956" height="15.194"/>
		<g>
			<defs>
				<rect id="SVGID_1_" x="62.867" y="61.127" width="373.956" height="257.055"/>
			</defs>
			<clipPath id="SVGID_00000077316566464403672880000013848633735227504532_">
				<use xlink:href="#SVGID_1_"  style="overflow:visible;"/>
			</clipPath>
			<g style="clip-path:url(#SVGID_00000077316566464403672880000013848633735227504532_);">
				
					<ellipse transform="matrix(0.988 -0.1546 0.1546 0.988 -30.7707 41.2657)" style="fill:#B1B2F3;" cx="249.845" cy="218.408" rx="137.522" ry="134.36"/>
				<g>
					<path style="fill:#56548C;" d="M141.02,240.976c-0.007-0.012-0.014-0.025-0.021-0.038c-0.196,0.088-0.391,0.178-0.59,0.263
						C140.603,241.129,140.808,241.053,141.02,240.976z"/>
					<path style="fill:#56548C;" d="M331.641,109.81c-2.775-1.991-5.623-3.882-8.546-5.664c2.45,3.055,5.259,5.875,8.256,8.581
						C331.714,111.698,331.766,110.734,331.641,109.81z"/>
					<path style="fill:#56548C;" d="M140.41,241.201c-0.42,0.158-0.761,0.296-0.818,0.365
						C139.873,241.454,140.134,241.32,140.41,241.201z"/>
					<path style="fill:#56548C;" d="M163.921,319.835c2.703-3.246-3.339-3.46-1.727-5.9c-4.309-2.894-5.49-6.632-4.102-11.749
						c0.549-2.027-0.522-4.323-2.567-6.349c-2.938-2.911-4.898-6.854-7.055-10.488c-0.979-1.65-2.305-3.803-1.961-5.402
						c1.233-5.714,2.165-11.826,4.983-16.781c3.758-6.609,3.609-12.651,0.713-21.589c-1.565,4.955-4.366,3.779-6.815,4.179
						c-3.133,0.511-3.109,0.656-5.798-4.191c-4.171-3.776-7.794-7.66-11.296-11.649c-0.611-0.696-0.865-1.812-1.029-2.777
						c-0.748-4.401-1.407-8.818-1.059-13.378c4.931,9.059,9.861,18.117,14.791,27.176c6.906-3.093,12.264-7.765,18.239-11.422
						c4.162-2.548,5.82-6.173,7.256-10.257c0.536-1.527,0.786-3.154,1.149-4.665c-2.753-2.459-5.75-5.134-8.618-7.695
						c-0.271,0.911-0.705,2.38-1.084,3.659c-3.736-1.98-7.387-3.757-10.875-5.811c-3.217-1.894-3.685-4.368-0.837-8.345
						c3.919,6.272,8.544,9.537,15.357,7.936c0.447-0.105,1.07,0.994,1.701,1.14c3.586,0.827,7.11,1.966,10.919,0.719
						c2.226-0.729,4.667-0.8,5.172-0.879c5.796,5.053,9.489,9.97,16.594,8.661c0.653,4.172,0.293,8.151,1.92,10.991
						c3.672,6.41,8.326,12.256,13.009,18.944c2.074-2.506,3.978-4.806,5.788-6.993c-0.6-3.832-1.139-7.274-1.535-9.809
						c2.64-3.362,6.581-6.123,6.623-8.941c0.07-4.689,6.747-3.931,5.814-8.69c-0.047-0.241,4.255-1.191,6.426-2.074
						c1.001-0.407,1.742-1.45,3.193-2.725c3.642,5.505,7.023,10.614,10.382,15.691c1.947-1.131,3.811-2.214,5.588-3.247
						c2.797,3.648,0.335,8.477,4.35,10.854c-3.153,7.978,2.02,12.201,7.199,16.652c0.952,0.819,0.61,3.144,0.931,5.196
						c-4.946-1.67-7.746-7.684-14.432-3.147c5.597-0.707,6.933,3.52,9.02,5.893c2.085,2.369,6.58,4.057,5.558,9.397
						c4.332-1.728,6.874,6.503,12.309,2.253c0.606-2.515,1.184-4.915,1.77-7.345c-1.319-0.264-1.953-0.464-2.598-0.508
						c-4.613-0.317-9.645-3.167-8.445-4.812c0.904-0.394,1.808-0.788,2.999-1.307c-0.353-2.255-0.719-4.591-1.11-7.09
						c-10.73-7.903-12.056-10.838-8.017-18.856c2.1,1.724,4.351,3.195,6.102,5.12c1.643,1.805,2.757,4.092,3.952,5.932
						c2.938-3.201,5.645-6.15,8.321-9.064c-0.518-3.312-1.057-6.754-1.897-12.118c-1.55-0.967-4.177-2.606-7.288-4.547
						c0.653-2.659,1.399-5.701,2.383-9.713c2.444,1.571,3.985,2.562,4.647,2.988c-0.017,2.482-0.028,3.987-0.038,5.492
						c1.182-0.023,2.363-0.046,3.603-0.069c-0.316-3.128-0.554-5.491-0.783-7.754c11.358-4.398,14.302-7.851,19.732-22.846
						c-3.232-5.613-6.442-11.19-9.642-16.746c2.03-1.169,3.157-1.818,4.2-2.419c-1.3-5.079-7.2,1.316-8.178-2.472
						c1.427-2.75,2.533-4.882,3.851-7.423c0.976,1.765,1.606,2.903,2.269,4.102c1.249-0.862,2.497-1.723,3.67-2.533
						c1.983,1.698,3.768,3.227,6.768,5.796c0.306,1.488,0.983,4.771,2.049,9.945c2.395-3.21,4.31-4.774,4.867-6.726
						c1.271-4.447-4.282-4.849-5.134-6.997c0.425-4.608,0.755-8.186,1.084-11.748c6.29-2.099,6.347-2.266,6.565-7.12
						c0.282-6.265,0.729-12.522,1.112-18.912c-4.156-4.374-10.077-3.479-15.746-3.592c0.626-2.704,1.296-4.589,1.442-6.515
						c0.145-1.913-0.237-3.866-0.417-6.168c3.229-0.505,6.076-0.951,9.078-1.421c-24.091-11.16-51.802-15.562-80.221-11.114
						c-55.599,8.702-98.281,48.814-112.002,98.833c2.671-0.771,4.843-1.397,7.091-2.046c2.039,4.198-0.479,7.547-1.788,11.289
						c-1.244,3.556-4.176,3.036-6.406,3.275c-0.532,0.057-1.122,0.165-1.726,0.25c-2.327,13.699-2.521,27.968-0.261,42.409
						c5.812,37.132,26.677,68.253,55.599,88.408c-0.503-0.832-1.007-1.659-1.545-2.459
						C166.652,323.572,163.538,320.296,163.921,319.835z"/>
					<path style="fill:#56548C;" d="M347.16,277.482c3.772-5.441-3.355-7.911-2.773-12.437c-1.67,4.177-2.691,8.278-3.807,12.352
						c-0.116,0.424-0.798,0.693-0.624,0.552c-2.362-1.319-4.489-2.506-6.675-3.728c0.574-1.89,1.013-3.335,1.47-4.837
						c-1.464-0.905-2.856-1.764-5.357-3.308c-0.171,5.334-6.669,4.911-6.331,10.038c0.009,0.141-0.879,0.444-1.369,0.499
						c-5.462,0.623-4.63,1.807-8.489,4.5c-4.548,3.175-5.52,10.383-12.959,10.51c-2.563,0.044-5.615,3.482-7.396,6.087
						c-1.214,1.777-1.745,5.898-0.615,7.061c3.973,4.09,1.16,8.219,0.627,14.018c8.379-3.618,15.953-6.181,22.731-10.609
						c2.463,1.697,4.908,3.381,7.553,5.204c-0.709,1.421-1.273,2.552-2.111,4.232c6.353-0.088,11.313-1.025,14.691-5.528
						c4.22-5.624,8.714-11.104,12.309-17.114c2.492-4.166,4.941-9.048,0.305-13.823C347.505,280.292,346.7,278.147,347.16,277.482z"
						/>
					<path style="fill:#56548C;" d="M299.256,259.832c0.509-2.955,0.62-4.928,1.223-6.738c0.623-1.869,1.544-3.703,2.664-5.325
						c1.239-1.794-3.057-2.163-0.74-4.673c1.15-1.245,0.504-5.056,0.968-5.936c0.228-0.432,0.215-0.993,0.326-1.576
						c-1.487-0.852-2.902-1.662-4.619-2.646c-2.177,2.985-4.134,5.403-5.79,8.013c-1.638,2.583-6.076,3.009-4.917,7.704
						c-5.088-4.017-4.287,0.75-5.577,2.283C286.284,255.46,287.168,255.942,299.256,259.832z"/>
					<path style="fill:#56548C;" d="M353.623,251.839c-3.182-5.853-9.628-7.231-15.751-3.575c-0.835,0.498-1.708,0.934-2.958,1.613
						c-0.753-2.146-1.398-3.983-2.042-5.818c-2.102-0.502-4.014-0.958-5.979-1.427c0.323,2.065,0.578,3.693,0.818,5.223
						c1.555,0.278,2.822,0.504,4.242,0.758c-0.701,1.047-1.256,1.877-2.433,3.634c5.279-1.429,9.218,0.118,11.714,4.063
						c3.178,5.022,2.978,5.111,7.735,2.177c0.783-0.483,1.783-0.613,1.771-0.609c2.145,1.532,3.67,2.622,5.194,3.711
						c0.398-0.564,0.795-1.128,1.193-1.692C355.972,257.204,355.016,254.403,353.623,251.839z"/>
					<path style="fill:#56548C;" d="M331.922,154.713c-5.825-3.868-0.597-12.318-6.076-15.965c2.272-2.489,4.6-5.039,6.927-7.589
						c-3.52,1.524-6.864,0.308-9.925,0.245c-0.354,3.016-0.65,5.538-0.959,8.178c1.468,2.014,3.195,4.384,5.27,7.23
						c-5.056,5.884-9.996,11.633-14.617,17.011c1.516,2.096,2.544,3.518,3.289,4.548
						C321.387,163.655,326.667,159.174,331.922,154.713z"/>
					<path style="fill:#56548C;" d="M171.283,293.98c-2.05,3.301-3.804,6.123-5.567,8.961c1.338,2.435,3.131,5.435,4.671,8.561
						c2.328,4.724,5.915,7.01,11.594,7.05c-2.105-4.28-4.127-7.504-4.691-11.84C176.735,302.448,173.55,298.526,171.283,293.98z"/>
					<path style="fill:#56548C;" d="M291.513,269.103c2.31-0.305,4.607-0.708,8.077-1.252c-7.561-4.551-13.744-1.759-22.134-1.014
						c3.676,2.186,5.354,5.083,7.257,1.33C286.691,270.557,289.174,269.412,291.513,269.103z"/>
					<path style="fill:#56548C;" d="M311.994,248.949c-7.991,2.043-8.094,2.283-5.002,11.395c0.47-1.571,0.903-3.023,1.472-4.926
						c0.864,1.57,1.491,2.708,2.118,3.847c0.498-0.031,0.996-0.063,1.494-0.094c-0.257-1.641-0.707-3.281-0.717-4.924
						C311.348,252.512,311.757,250.774,311.994,248.949z"/>
					<path style="fill:#56548C;" d="M310.777,231.953c0.793-0.963,1.428-1.734,1.816-2.207c1.511,1.242,3.021,2.482,4.979,4.091
						c0.587-3.689,0.994-6.251,1.52-9.555c-3.181,1.4-6.488,2.856-10.032,4.416C309.819,230.138,310.275,231.002,310.777,231.953z"
						/>
					<path style="fill:#56548C;" d="M304.233,203.03c-0.757,7.98-0.757,7.98,2.224,12.915
						C308.612,206.881,308.612,206.881,304.233,203.03z"/>
				</g>
			</g>
		</g>
		<path style="fill:#606BF1;" d="M110.346,307.236l9.692,2.213c1.779,0.406,3.551-0.707,3.957-2.486l2.213-9.692
			c3.008,0.687,6.007-1.194,6.695-4.206c0.687-3.008-1.197-6.008-4.206-6.695l2.212-9.688c0.406-1.779-0.707-3.551-2.486-3.957
			l-9.695-2.214c0.011-0.032,0.019-0.065,0.026-0.097c0.687-3.009-1.194-6.007-4.206-6.695c-3.008-0.687-6.008,1.197-6.695,4.206
			c-0.007,0.033-0.015,0.065-0.019,0.099l-9.692-2.213c-1.779-0.406-3.551,0.707-3.957,2.486l-2.212,9.688
			c3.008,0.687,4.893,3.686,4.206,6.695c-0.688,3.012-3.686,4.893-6.695,4.206l-2.213,9.692c-0.406,1.779,0.707,3.551,2.486,3.957
			l9.688,2.212c0.687-3.009,3.686-4.893,6.695-4.206C109.152,301.23,111.033,304.228,110.346,307.236z"/>
		<path style="fill:none;stroke:#45457F;stroke-width:3;stroke-linecap:round;stroke-miterlimit:10;" d="M135.314,259.065
			c2.128-0.604,4.331-1.109,6.551-1.523"/>
		<path style="fill:none;stroke:#45457F;stroke-width:2;stroke-linecap:round;stroke-miterlimit:10;" d="M242.627,358.52
			c5.288-4.567,0.088-6.1-2.993-10.599c-2.83-4.131,1.676-8.783,7.141-11.823c5.062-2.815,12.128-6.977,4.842-10.783
			c-2.203-1.151-5.003-1.791-7.738-2.409c-8.234-1.86-16.467-3.72-24.701-5.579c-3.064-0.692-6.197-1.408-8.686-2.683
			c-9.699-4.968,0.74-9.589,8.557-11.423c16.967-3.981,35.36-5.471,52.225-9.605c8.05-1.973,19.593-5.01,21.286-10.809
			c0.557-1.908-0.291-4.012-2.618-5.359c-6.674-3.864-22.355-1.103-30.296-0.356c-11.52,1.084-22.92,2.571-34.301,4.08
			c-22.986,3.047-46.137,6.219-69.79,6.426c-12.708,0.111-31.952-0.616-37.724-8.746c-2.029-2.858-1.598-6.176,0.158-9.098
			c3.064-5.097,9.716-8.53,17.324-10.69"/>
		<g>
			<g>
				<path style="fill:#56548C;" d="M327.009,391.465l-28.994-36.708c-4.95-6.266-12.865-9.418-20.767-8.27l-26.452,3.845
					l-16.91,2.458l-26.452,3.845c-7.902,1.148-14.592,6.423-17.553,13.839l-17.344,43.443c-4.579,11.47,1.007,24.482,12.478,29.062
					c3.781,1.51,7.73,1.915,11.489,1.368c7.644-1.111,14.503-6.157,17.573-13.846l12.559-31.459l13.683-1.989l16.91-2.458
					l13.683-1.989l20.996,26.582c5.132,6.497,13.144,9.382,20.788,8.271c3.759-0.546,7.429-2.059,10.624-4.582
					C333.014,415.22,334.665,401.157,327.009,391.465z"/>
				<path style="fill:#5F5F99;" d="M295.59,352.16L295.59,352.16c-4.906-4.509-11.625-6.649-18.341-5.672l-26.452,3.845
					l-16.91,2.458l-26.452,3.845c-6.716,0.976-12.548,4.94-15.967,10.659v0l3.444,23.694c0.996,6.85,7.359,11.595,14.209,10.599
					c9.149-1.33,17.517-2.546,17.517-2.546l13.683-1.989l16.91-2.458l13.683-1.989c0,0,8.368-1.216,17.517-2.546
					c6.85-0.996,11.599-7.356,10.603-14.206L295.59,352.16z"/>
				<g>
					<path style="fill:#112B46;stroke:#56548C;stroke-width:1.1469;stroke-miterlimit:10;" d="M283.642,357.924
						c0.458,3.154-1.727,6.082-4.881,6.541c-3.154,0.458-6.082-1.727-6.541-4.881c-0.458-3.154,1.727-6.082,4.881-6.541
						C280.255,352.584,283.183,354.77,283.642,357.924z"/>
					<path style="fill:#112B46;stroke:#56548C;stroke-width:1.1469;stroke-miterlimit:10;" d="M286.532,377.811
						c0.458,3.154-1.727,6.082-4.881,6.541c-3.154,0.458-6.082-1.727-6.541-4.881c-0.458-3.154,1.727-6.082,4.881-6.541
						C283.145,372.471,286.074,374.657,286.532,377.811z"/>
					<path style="fill:#112B46;stroke:#56548C;stroke-width:1.1469;stroke-miterlimit:10;" d="M268.603,364.432
						c3.154-0.458,6.082,1.727,6.541,4.881c0.458,3.154-1.727,6.082-4.881,6.541c-3.154,0.458-6.082-1.727-6.541-4.881
						C263.263,367.819,265.449,364.89,268.603,364.432z"/>
					<path style="fill:#112B46;stroke:#56548C;stroke-width:1.1469;stroke-miterlimit:10;" d="M288.49,361.541
						c3.154-0.458,6.082,1.727,6.541,4.881c0.459,3.154-1.727,6.082-4.881,6.541c-3.154,0.458-6.082-1.727-6.541-4.881
						C283.15,364.928,285.336,362,288.49,361.541z"/>
				</g>
				<g>
					<path style="fill:#112B46;stroke:#56548C;stroke-width:1.1469;stroke-miterlimit:10;" d="M224.678,370.844l-4.701,0.683
						c-1.569,0.228-3.027-0.859-3.255-2.429l-0.683-4.701c-0.247-1.698-1.823-2.874-3.521-2.627l-5.219,0.759
						c-1.698,0.247-2.874,1.823-2.627,3.521l0.683,4.701c0.228,1.569-0.859,3.027-2.429,3.255l-4.701,0.683
						c-1.698,0.247-2.874,1.823-2.627,3.521l0.759,5.219c0.247,1.698,1.823,2.874,3.521,2.627l4.701-0.683
						c1.57-0.228,3.027,0.859,3.255,2.429l0.683,4.701c0.247,1.698,1.823,2.874,3.521,2.627l5.219-0.759
						c1.698-0.247,2.874-1.823,2.627-3.521l-0.683-4.701c-0.228-1.57,0.859-3.027,2.429-3.255l4.7-0.683
						c1.698-0.247,2.874-1.823,2.627-3.521l-0.758-5.219C227.952,371.774,226.376,370.597,224.678,370.844z"/>
					<g>
						<path style="fill:#0B2033;" d="M217.157,377.741c0.392,2.695-1.475,5.197-4.17,5.589c-2.695,0.392-5.197-1.475-5.589-4.17
							c-0.392-2.695,1.475-5.197,4.17-5.589C214.264,373.179,216.766,375.046,217.157,377.741z"/>
						<g>
							<polygon style="fill:#0B2033;" points="210.259,364.563 208.115,369.944 213.847,369.111 							"/>
							<polygon style="fill:#0B2033;" points="214.297,392.337 216.441,386.957 210.709,387.79 							"/>
						</g>
						<g>
							<polygon style="fill:#0B2033;" points="226.165,376.432 220.784,374.287 221.618,380.019 							"/>
							<polygon style="fill:#0B2033;" points="198.391,380.469 203.772,382.613 202.938,376.881 							"/>
						</g>
					</g>
				</g>
				<g>
					
						<rect x="249.734" y="380.437" transform="matrix(0.9896 -0.1438 0.1438 0.9896 -52.3509 40.512)" style="fill:#EC827D;" width="8.542" height="3.754"/>
					
						<rect x="235.645" y="382.485" transform="matrix(0.9896 -0.1438 0.1438 0.9896 -52.7911 38.5061)" style="fill:#112B46;" width="8.542" height="3.754"/>
				</g>
				
					<text transform="matrix(0.9896 -0.1438 0.1438 0.9896 233.9981 363.6555)" style="fill:#112B46; font-family:'Poppins-Bold'; font-size:6.7383px;">GAME</text>
			</g>
		</g>
		<path style="fill:#EC827D;" d="M76.51,94.658c0,1.966-1.593,3.559-3.559,3.559c-1.966,0-3.559-1.594-3.559-3.559
			c0-1.966,1.593-3.559,3.559-3.559C74.917,91.099,76.51,92.693,76.51,94.658z"/>
		<path style="fill:#606BF1;" d="M87.188,94.658c0,1.966-1.594,3.559-3.559,3.559c-1.966,0-3.559-1.594-3.559-3.559
			c0-1.966,1.593-3.559,3.559-3.559C85.595,91.099,87.188,92.693,87.188,94.658z"/>
		<path style="fill:#FBD15B;" d="M97.866,94.658c0,1.966-1.594,3.559-3.559,3.559c-1.966,0-3.559-1.594-3.559-3.559
			c0-1.966,1.593-3.559,3.559-3.559C96.272,91.099,97.866,92.693,97.866,94.658z"/>
		<g>
			<g>
				<g>
					<path style="fill:#E2C675;" d="M343.978,251.267l0.054-4.638l8.207,0.096c8.014,0.094,15.387-4.214,19.24-11.242l4.633-8.451
						c0.299-0.546,0.16-1.036,0.051-1.279c-0.11-0.243-0.384-0.673-0.99-0.812l-14.189-3.252l1.036-4.521l14.189,3.252
						c1.873,0.429,3.398,1.681,4.185,3.434c0.787,1.753,0.708,3.724-0.215,5.409l-4.633,8.45
						c-4.678,8.534-13.63,13.765-23.362,13.651L343.978,251.267z"/>
				</g>
				<g>
					<path style="fill:#E2C675;" d="M328.507,247.721l-7.43-3.488c-8.809-4.135-14.59-12.743-15.085-22.462l-0.49-9.625
						c-0.098-1.918,0.69-3.728,2.162-4.963c1.472-1.235,3.39-1.697,5.263-1.268l14.189,3.252l-1.036,4.521l-14.189-3.252
						c-0.607-0.139-1.04,0.129-1.245,0.3c-0.205,0.171-0.543,0.552-0.512,1.174l0.49,9.625c0.408,8.005,5.168,15.094,12.423,18.499
						l7.43,3.488L328.507,247.721z"/>
				</g>
				<g>
					<path style="fill:#E2C675;" d="M371.529,213.877l-3.052,13.319c-3.535,15.426-13.99,28.362-28.343,35.055
						c-0.299,0.141-0.614,0.269-0.922,0.369c-3.962,1.424-8.401,0.406-11.35-2.592l0.002-0.009
						c-0.243-0.227-0.462-0.477-0.678-0.736c-5.006-6.144-8.45-13.252-10.2-20.772c-1.752-7.511-1.816-15.415-0.048-23.128
						l3.052-13.319L371.529,213.877z"/>
				</g>
				<g>
					<path style="fill:#CDA349;" d="M368.553,213.195l-0.651,2.841c-4.199,18.322-16.617,33.687-33.665,41.638
						c-0.355,0.167-0.729,0.319-1.095,0.439c-2.094,0.752-4.299,0.927-6.411,0.58c0.155,0.195,0.297,0.398,0.454,0.591
						c0.217,0.259,0.435,0.509,0.678,0.736l-0.002,0.009c2.948,2.998,7.388,4.015,11.35,2.592c0.309-0.101,0.623-0.228,0.922-0.369
						c14.353-6.694,24.808-19.63,28.343-35.055l3.052-13.319L368.553,213.195z"/>
				</g>
				<g>
					<polygon style="fill:#E2C675;" points="346.769,281.674 341.951,302.697 307.935,294.901 312.753,273.878 324.091,276.476 
						335.439,279.077 					"/>
				</g>
				<g>
					<polygon style="fill:#CDA349;" points="351.77,299.773 350.467,305.459 299.066,293.679 300.37,287.992 317.503,291.919 
						334.651,295.849 					"/>
				</g>
				<g>
					<polygon style="fill:#E2C675;" points="351.084,300.353 350.79,301.635 300.441,290.096 300.735,288.814 317.518,292.66 
						334.314,296.51 					"/>
				</g>
				<g>
					<path style="fill:#CDA349;" d="M339.211,262.621l-3.771,16.457l-11.348-2.601l3.77-16.448
						C330.809,263.027,335.249,264.044,339.211,262.621z"/>
				</g>
				
					<rect x="327.226" y="262.892" transform="matrix(0.9745 0.2243 -0.2243 0.9745 68.8883 -66.9531)" style="fill:#E2C675;" width="3.863" height="13.726"/>
				
					<rect x="320.595" y="210.281" transform="matrix(0.9745 0.2243 -0.2243 0.9745 56.1522 -72.0091)" style="fill:#CDA349;" width="48.875" height="1.749"/>
				<g>
					<polygon style="fill:#CDA349;" points="339.078,292.548 339.235,291.866 315.782,286.468 317.287,279.93 340.057,285.171 
						338.396,292.391 339.078,292.548 339.235,291.866 339.078,292.548 339.76,292.705 341.736,284.12 316.236,278.251 
						314.103,287.519 339.603,293.388 339.76,292.705 					"/>
				</g>
			</g>
		</g>
		<g>
			<g>
				<path style="fill:#42427A;" d="M164.148,252.58c0.743,3.273-0.151,6.267-1.998,6.686c-1.847,0.419-3.947-1.894-4.69-5.167
					c-0.743-3.273,0.151-6.267,1.998-6.686C161.305,246.993,163.405,249.307,164.148,252.58z"/>
				
					<rect x="142.568" y="251.438" transform="matrix(0.9752 -0.2215 0.2215 0.9752 -52.7908 39.9618)" style="fill:#6363A5;" width="18.465" height="7.893"/>
				<path style="fill:#6363A5;" d="M162.39,252.979c0.483,2.126,0.164,4.01-0.712,4.209c-0.876,0.199-1.978-1.363-2.46-3.488
					c-0.483-2.126-0.164-4.01,0.712-4.209C160.806,249.292,161.908,250.854,162.39,252.979z"/>
				<path style="fill:#42427A;" d="M144.384,257.068c0.483,2.125,0.164,4.01-0.712,4.209c-0.876,0.199-1.978-1.363-2.46-3.488
					c-0.483-2.125-0.164-4.01,0.712-4.209C142.8,253.381,143.901,254.943,144.384,257.068z"/>
			</g>
		</g>
		<g>
			
				<ellipse transform="matrix(0.3309 -0.9437 0.9437 0.3309 99.1707 436.8531)" style="fill:#F0F5F7;" cx="357.627" cy="148.498" rx="30.325" ry="30.325"/>
			<g>
				<path style="fill:#56548C;" d="M357.627,180.663c-17.736,0-32.165-14.429-32.165-32.165c0-17.736,14.429-32.165,32.165-32.165
					c17.736,0,32.165,14.429,32.165,32.165C389.792,166.233,375.363,180.663,357.627,180.663z M357.627,119.396
					c-16.047,0-29.102,13.055-29.102,29.102c0,16.046,13.055,29.102,29.102,29.102c16.046,0,29.101-13.055,29.101-29.102
					C386.728,132.451,373.673,119.396,357.627,119.396z"/>
			</g>
			<path style="fill:#878CF0;" d="M357.627,122.459c-14.381,0-26.038,11.658-26.038,26.038s11.658,26.038,26.038,26.038
				c14.38,0,26.038-11.658,26.038-26.038S372.007,122.459,357.627,122.459z M357.627,163.814c-8.459,0-15.317-6.858-15.317-15.317
				c0-8.459,6.857-15.317,15.317-15.317c8.459,0,15.317,6.858,15.317,15.317C372.944,156.957,366.086,163.814,357.627,163.814z"/>
			
				<ellipse transform="matrix(0.229 -0.9734 0.9734 0.229 131.1779 462.6143)" style="fill:#EC827D;" cx="357.627" cy="148.497" rx="7.658" ry="7.658"/>
			<g>
				<g>
					
						<rect x="350.518" y="130.371" transform="matrix(0.7071 -0.7071 0.7071 0.7071 17.1218 303.5704)" style="fill:#56548C;" width="48.915" height="1.495"/>
				</g>
				<g>
					<polygon style="fill:#56548C;" points="361.79,150.352 354.441,151.882 355.801,144.363 358.086,148.068 					"/>
				</g>
				<polygon style="fill:#FCD786;" points="390.118,122.504 384.703,121.421 392.284,113.84 397.7,114.923 				"/>
				<polygon style="fill:#FDC536;" points="383.62,116.006 384.703,121.421 392.284,113.84 391.201,108.425 				"/>
			</g>
		</g>
		<g>
			<polygon style="fill:#A5B7C6;" points="114.244,126.596 99.654,118.172 99.654,135.019 			"/>
			<polygon style="fill:#A5B7C6;" points="98.219,126.596 83.629,118.172 83.629,135.019 			"/>
		</g>
		<path style="fill:#EC827D;" d="M119.842,192.756l12.176,2.78c2.235,0.51,4.461-0.888,4.971-3.123l2.78-12.176
			c3.78,0.863,7.547-1.5,8.411-5.284c0.863-3.78-1.504-7.548-5.284-8.411l2.779-12.172c0.51-2.235-0.888-4.461-3.123-4.971
			l-12.181-2.781c0.014-0.04,0.023-0.081,0.033-0.122c0.863-3.78-1.5-7.547-5.284-8.411c-3.78-0.863-7.548,1.504-8.411,5.284
			c-0.009,0.041-0.019,0.082-0.023,0.124l-12.176-2.78c-2.235-0.51-4.461,0.888-4.972,3.123l-2.779,12.172
			c3.78,0.863,6.147,4.631,5.284,8.411c-0.864,3.784-4.631,6.147-8.411,5.284l-2.78,12.176c-0.51,2.235,0.888,4.461,3.123,4.971
			l12.172,2.779c0.863-3.78,4.631-6.147,8.411-5.284C118.343,185.209,120.705,188.976,119.842,192.756z"/>
		<g>
			<g>
				<polygon style="fill:#FBD15B;" points="134.582,114.897 137.054,119.905 142.581,120.709 138.582,124.607 139.526,130.112 
					134.582,127.513 129.639,130.112 130.583,124.607 126.584,120.709 132.111,119.905 				"/>
				<polygon style="fill:#FBD15B;" points="155.941,114.897 158.413,119.905 163.94,120.709 159.941,124.607 160.885,130.112 
					155.941,127.513 150.998,130.112 151.942,124.607 147.943,120.709 153.47,119.905 				"/>
				<polygon style="fill:#FBD15B;" points="177.301,114.897 179.772,119.905 185.299,120.709 181.3,124.607 182.244,130.112 
					177.301,127.513 172.357,130.112 173.301,124.607 169.302,120.709 174.829,119.905 				"/>
				<polygon style="fill:#FBD15B;" points="198.66,114.897 201.132,119.905 206.658,120.709 202.659,124.607 203.603,130.112 
					198.66,127.513 193.716,130.112 194.66,124.607 190.661,120.709 196.188,119.905 				"/>
				<polygon style="fill:#FBD15B;" points="220.019,114.897 222.491,119.905 228.018,120.709 224.018,124.607 224.962,130.112 
					220.019,127.513 215.075,130.112 216.019,124.607 212.02,120.709 217.547,119.905 				"/>
			</g>
		</g>
		<g>
			<g>
				<g>
					<polygon style="fill:#AACFE0;" points="217.38,257.12 193.192,255.6 182.413,233.893 206.602,235.412 					"/>
					<g>
						<path style="fill:#56548C;" d="M201.165,241.142c0.567,1.142,2.058,2.132,3.33,2.212c1.272,0.08,1.844-0.781,1.277-1.923
							c-0.567-1.142-2.058-2.132-3.33-2.212C201.169,239.139,200.598,240,201.165,241.142z"/>
						<path style="fill:#56548C;" d="M189.467,240.407c0.567,1.142,2.058,2.132,3.33,2.212c1.272,0.08,1.844-0.781,1.277-1.923
							c-0.567-1.142-2.058-2.132-3.33-2.212C189.471,238.405,188.9,239.265,189.467,240.407z"/>
						<path style="fill:#56548C;" d="M205.72,250.316c0.567,1.142,2.058,2.132,3.33,2.212c1.272,0.08,1.844-0.781,1.277-1.923
							c-0.567-1.142-2.058-2.132-3.33-2.212C205.725,248.313,205.153,249.174,205.72,250.316z"/>
						<path style="fill:#56548C;" d="M194.021,249.581c0.567,1.142,2.058,2.132,3.33,2.212c1.272,0.08,1.844-0.781,1.277-1.923
							c-0.567-1.142-2.058-2.132-3.33-2.212C194.026,247.578,193.455,248.439,194.021,249.581z"/>
					</g>
				</g>
				<g>
					<polygon style="fill:#D2EDF9;" points="220.012,215.225 206.602,235.412 182.414,233.893 195.824,213.705 					"/>
					<g>
						<path style="fill:#56548C;" d="M198.067,221.279c1.272,0.08,2.875-0.716,3.581-1.778c0.705-1.062,0.246-1.987-1.027-2.067
							c-1.272-0.08-2.875,0.716-3.581,1.778C196.335,220.273,196.795,221.199,198.067,221.279z"/>
						<path style="fill:#56548C;" d="M191.582,231.042c1.272,0.08,2.875-0.716,3.581-1.778c0.705-1.062,0.246-1.988-1.027-2.067
							c-1.272-0.08-2.875,0.716-3.581,1.778C189.85,230.036,190.309,230.962,191.582,231.042z"/>
						<path style="fill:#56548C;" d="M208.289,221.921c1.272,0.08,2.875-0.716,3.581-1.778c0.705-1.062,0.246-1.987-1.026-2.067
							c-1.272-0.08-2.875,0.716-3.581,1.778C206.558,220.915,207.017,221.841,208.289,221.921z"/>
						<path style="fill:#56548C;" d="M201.804,231.684c1.272,0.08,2.875-0.716,3.581-1.778c0.705-1.062,0.246-1.987-1.027-2.067
							c-1.272-0.08-2.875,0.716-3.581,1.778C200.072,230.679,200.532,231.604,201.804,231.684z"/>
					</g>
					<path style="fill:#56548C;" d="M199.936,226.481c1.272,0.08,2.875-0.716,3.581-1.778c0.705-1.062,0.246-1.987-1.026-2.067
						c-1.272-0.08-2.875,0.716-3.581,1.778C198.204,225.476,198.663,226.401,199.936,226.481z"/>
				</g>
				<g>
					<polygon style="fill:#BEE1F4;" points="230.79,236.932 217.38,257.12 206.602,235.412 220.012,215.225 					"/>
					<g>
						<path style="fill:#56548C;" d="M218.384,228.626c0.567,1.142,1.598,1.207,2.304,0.145c0.705-1.062,0.818-2.848,0.251-3.99
							c-0.567-1.142-1.598-1.207-2.304-0.145C217.929,225.698,217.817,227.484,218.384,228.626z"/>
						<path style="fill:#56548C;" d="M216.453,247.563c0.567,1.142,1.598,1.206,2.304,0.145c0.705-1.062,0.817-2.848,0.251-3.99
							s-1.598-1.206-2.304-0.145C215.999,244.635,215.886,246.422,216.453,247.563z"/>
						<path style="fill:#56548C;" d="M217.419,238.095c0.567,1.142,1.598,1.206,2.304,0.145c0.705-1.062,0.818-2.848,0.251-3.99
							c-0.567-1.142-1.598-1.207-2.304-0.145C216.964,235.167,216.852,236.953,217.419,238.095z"/>
					</g>
				</g>
			</g>
		</g>
		<path style="fill:#A5B7C6;" d="M408.109,142.077c-1.51,0-2.734,1.224-2.734,2.734c0,1.509,1.224,2.734,2.734,2.734
			c1.51,0,2.734-1.225,2.734-2.734C410.844,143.301,409.62,142.077,408.109,142.077z M401.721,138.136l2.406,2.514
			c1.04-0.993,2.431-1.603,3.982-1.603c1.552,0.001,2.943,0.61,3.983,1.603l2.406-2.514c-1.661-1.59-3.908-2.572-6.389-2.572
			C405.629,135.564,403.382,136.546,401.721,138.136z M408.109,120.926c-6.407,0.001-12.22,2.528-16.509,6.634l2.408,2.516
			c3.668-3.51,8.624-5.666,14.102-5.667c5.479,0.001,10.434,2.157,14.102,5.667l2.408-2.516
			C420.33,123.454,414.517,120.927,408.109,120.926z M396.727,132.917l2.406,2.514c2.338-2.236,5.486-3.613,8.976-3.614
			c3.491,0.001,6.639,1.378,8.977,3.614l2.406-2.514c-2.959-2.833-6.963-4.582-11.383-4.583
			C403.69,128.335,399.686,130.085,396.727,132.917z"/>
		<g>
			<g>
				<g>
					
						<rect x="213.566" y="159.893" transform="matrix(0.9316 -0.3635 0.3635 0.9316 -44.6106 90.1844)" style="fill:#DCE8EF;" width="7.422" height="7.422"/>
					
						<rect x="216.264" y="166.807" transform="matrix(0.9316 -0.3636 0.3636 0.9316 -46.9405 91.6417)" style="fill:#404077;" width="7.422" height="7.422"/>
				</g>
				<g>
					
						<rect x="218.962" y="173.72" transform="matrix(0.9316 -0.3636 0.3636 0.9316 -49.2694 93.0958)" style="fill:#DCE8EF;" width="7.422" height="7.422"/>
					
						<rect x="221.66" y="180.634" transform="matrix(0.9316 -0.3636 0.3636 0.9316 -51.5979 94.5485)" style="fill:#404077;" width="7.422" height="7.422"/>
				</g>
				<g>
					
						<rect x="224.358" y="187.548" transform="matrix(0.9316 -0.3636 0.3636 0.9316 -53.9267 96.0021)" style="fill:#DCE8EF;" width="7.422" height="7.422"/>
					
						<rect x="227.056" y="194.462" transform="matrix(0.9316 -0.3636 0.3636 0.9316 -56.2562 97.4579)" style="fill:#404077;" width="7.422" height="7.422"/>
				</g>
				<g>
					
						<rect x="229.755" y="201.376" transform="matrix(0.9316 -0.3636 0.3636 0.9316 -58.5852 98.912)" style="fill:#DCE8EF;" width="7.422" height="7.422"/>
					
						<rect x="232.453" y="208.29" transform="matrix(0.9316 -0.3636 0.3636 0.9316 -60.9141 100.366)" style="fill:#404077;" width="7.422" height="7.422"/>
				</g>
				<g>
					
						<rect x="239.367" y="205.591" transform="matrix(0.9316 -0.3636 0.3636 0.9316 -59.4601 102.695)" style="fill:#DCE8EF;" width="7.422" height="7.422"/>
					
						<rect x="236.668" y="198.678" transform="matrix(0.9316 -0.3636 0.3636 0.9316 -57.1306 101.2395)" style="fill:#404077;" width="7.422" height="7.422"/>
				</g>
				<g>
					
						<rect x="233.97" y="191.764" transform="matrix(0.9316 -0.3636 0.3636 0.9316 -54.8022 99.7869)" style="fill:#DCE8EF;" width="7.422" height="7.422"/>
					
						<rect x="231.272" y="184.85" transform="matrix(0.9316 -0.3635 0.3635 0.9316 -52.4721 98.3292)" style="fill:#404077;" width="7.422" height="7.422"/>
				</g>
				<g>
					
						<rect x="228.574" y="177.936" transform="matrix(0.9316 -0.3636 0.3636 0.9316 -50.1443 96.8788)" style="fill:#DCE8EF;" width="7.422" height="7.422"/>
					
						<rect x="225.876" y="171.022" transform="matrix(0.9316 -0.3636 0.3636 0.9316 -47.8154 95.4247)" style="fill:#404077;" width="7.422" height="7.422"/>
				</g>
				<g>
					
						<rect x="223.178" y="164.108" transform="matrix(0.9316 -0.3636 0.3636 0.9316 -45.4864 93.9707)" style="fill:#DCE8EF;" width="7.422" height="7.422"/>
					
						<rect x="220.479" y="157.195" transform="matrix(0.9316 -0.3635 0.3635 0.9316 -43.1563 92.512)" style="fill:#404077;" width="7.422" height="7.422"/>
				</g>
				<g>
					
						<rect x="227.393" y="154.496" transform="matrix(0.9316 -0.3636 0.3636 0.9316 -41.7031 94.8442)" style="fill:#DCE8EF;" width="7.422" height="7.422"/>
					
						<rect x="230.091" y="161.41" transform="matrix(0.9316 -0.3636 0.3636 0.9316 -44.032 96.2983)" style="fill:#404077;" width="7.422" height="7.422"/>
				</g>
				<g>
					
						<rect x="232.79" y="168.324" transform="matrix(0.9316 -0.3636 0.3636 0.9316 -46.3613 97.7537)" style="fill:#DCE8EF;" width="7.422" height="7.422"/>
					
						<rect x="235.488" y="175.238" transform="matrix(0.9316 -0.3636 0.3636 0.9316 -48.6903 99.2077)" style="fill:#404077;" width="7.422" height="7.422"/>
				</g>
				<g>
					
						<rect x="238.186" y="182.152" transform="matrix(0.9316 -0.3636 0.3636 0.9316 -51.0192 100.6618)" style="fill:#DCE8EF;" width="7.422" height="7.422"/>
					
						<rect x="240.884" y="189.066" transform="matrix(0.9316 -0.3636 0.3636 0.9316 -53.3481 102.1158)" style="fill:#404077;" width="7.422" height="7.422"/>
				</g>
				<g>
					
						<rect x="243.582" y="195.979" transform="matrix(0.9316 -0.3635 0.3635 0.9316 -55.6754 103.5646)" style="fill:#DCE8EF;" width="7.422" height="7.422"/>
					
						<rect x="246.28" y="202.893" transform="matrix(0.9316 -0.3636 0.3636 0.9316 -58.0055 105.0224)" style="fill:#404077;" width="7.422" height="7.422"/>
				</g>
				<g>
					
						<rect x="253.194" y="200.195" transform="matrix(0.9316 -0.3636 0.3636 0.9316 -56.552 107.3529)" style="fill:#DCE8EF;" width="7.422" height="7.422"/>
					
						<rect x="250.496" y="193.281" transform="matrix(0.9316 -0.3636 0.3636 0.9316 -54.2232 105.8992)" style="fill:#404077;" width="7.422" height="7.422"/>
				</g>
				<g>
					
						<rect x="247.798" y="186.367" transform="matrix(0.9316 -0.3636 0.3636 0.9316 -51.8941 104.4447)" style="fill:#DCE8EF;" width="7.422" height="7.422"/>
					
						<rect x="245.1" y="179.454" transform="matrix(0.9316 -0.3636 0.3636 0.9316 -49.5652 102.9907)" style="fill:#404077;" width="7.422" height="7.422"/>
				</g>
				<g>
					
						<rect x="242.402" y="172.54" transform="matrix(0.9316 -0.3635 0.3635 0.9316 -47.2349 101.5315)" style="fill:#DCE8EF;" width="7.422" height="7.422"/>
					
						<rect x="239.703" y="165.626" transform="matrix(0.9316 -0.3636 0.3636 0.9316 -44.9073 100.0826)" style="fill:#404077;" width="7.422" height="7.422"/>
				</g>
				<g>
					
						<rect x="237.005" y="158.712" transform="matrix(0.9316 -0.3636 0.3636 0.9316 -42.5783 98.6286)" style="fill:#DCE8EF;" width="7.422" height="7.422"/>
					
						<rect x="234.307" y="151.798" transform="matrix(0.9316 -0.3636 0.3636 0.9316 -40.2494 97.1745)" style="fill:#404077;" width="7.422" height="7.422"/>
				</g>
				<g>
					
						<rect x="241.106" y="149.145" transform="matrix(0.9316 -0.3636 0.3636 0.9316 -38.8194 99.4649)" style="fill:#DCE8EF;" width="7.422" height="7.422"/>
					
						<rect x="243.805" y="156.059" transform="matrix(0.9316 -0.3635 0.3635 0.9316 -41.1473 100.9139)" style="fill:#404077;" width="7.422" height="7.422"/>
				</g>
				<g>
					
						<rect x="246.503" y="162.972" transform="matrix(0.9316 -0.3636 0.3636 0.9316 -43.477 102.3715)" style="fill:#DCE8EF;" width="7.422" height="7.422"/>
					
						<rect x="249.201" y="169.886" transform="matrix(0.9316 -0.3636 0.3636 0.9316 -45.8063 103.827)" style="fill:#404077;" width="7.422" height="7.422"/>
				</g>
				<g>
					
						<rect x="251.899" y="176.8" transform="matrix(0.9316 -0.3636 0.3636 0.9316 -48.1352 105.2811)" style="fill:#DCE8EF;" width="7.422" height="7.422"/>
					
						<rect x="254.597" y="183.714" transform="matrix(0.9316 -0.3635 0.3635 0.9316 -50.4631 106.7312)" style="fill:#404077;" width="7.422" height="7.422"/>
				</g>
				<g>
					
						<rect x="257.295" y="190.628" transform="matrix(0.9316 -0.3636 0.3636 0.9316 -52.7931 108.1892)" style="fill:#DCE8EF;" width="7.422" height="7.422"/>
					
						<rect x="259.994" y="197.542" transform="matrix(0.9316 -0.3636 0.3636 0.9316 -55.1216 109.6417)" style="fill:#404077;" width="7.422" height="7.422"/>
				</g>
				<g>
					
						<rect x="266.907" y="194.843" transform="matrix(0.9316 -0.3636 0.3636 0.9316 -53.6679 111.9718)" style="fill:#DCE8EF;" width="7.422" height="7.422"/>
					
						<rect x="264.209" y="187.93" transform="matrix(0.9316 -0.3636 0.3636 0.9316 -51.3389 110.5176)" style="fill:#404077;" width="7.422" height="7.422"/>
				</g>
				<g>
					
						<rect x="261.511" y="181.016" transform="matrix(0.9316 -0.3636 0.3636 0.9316 -49.0097 109.0625)" style="fill:#DCE8EF;" width="7.422" height="7.422"/>
					
						<rect x="258.813" y="174.102" transform="matrix(0.9316 -0.3636 0.3636 0.9316 -46.6808 107.6085)" style="fill:#404077;" width="7.422" height="7.422"/>
				</g>
				<g>
					
						<rect x="256.115" y="167.188" transform="matrix(0.9316 -0.3636 0.3636 0.9316 -44.3522 106.156)" style="fill:#DCE8EF;" width="7.422" height="7.422"/>
					
						<rect x="253.417" y="160.274" transform="matrix(0.9316 -0.3636 0.3636 0.9316 -42.0233 104.7019)" style="fill:#404077;" width="7.422" height="7.422"/>
				</g>
				<g>
					
						<rect x="250.718" y="153.36" transform="matrix(0.9316 -0.3636 0.3636 0.9316 -39.6943 103.2479)" style="fill:#DCE8EF;" width="7.422" height="7.422"/>
					
						<rect x="248.02" y="146.447" transform="matrix(0.9316 -0.3636 0.3636 0.9316 -37.3654 101.7938)" style="fill:#404077;" width="7.422" height="7.422"/>
				</g>
			</g>
		</g>
		<g>
			<rect x="261.451" y="163.964" style="fill:#404077;" width="22.549" height="7.042"/>
			<path style="fill:#404077;" d="M278.541,135.125c0,3.212-2.604,5.815-5.815,5.815c-3.212,0-5.815-2.604-5.815-5.815
				c0-3.212,2.604-5.815,5.815-5.815C275.938,129.309,278.541,131.913,278.541,135.125z"/>
			<polygon style="fill:#404077;" points="279.155,163.964 266.298,163.964 269.166,138.25 276.287,138.25 			"/>
			<rect x="264.498" y="158.346" style="fill:#4A4A84;" width="16.457" height="5.617"/>
		</g>
		<g>
			<rect x="190.932" y="194.317" style="fill:#F0F5F7;" width="22.549" height="7.042"/>
			<path style="fill:#F0F5F7;" d="M208.022,165.478c0,3.212-2.604,5.815-5.815,5.815c-3.212,0-5.815-2.604-5.815-5.815
				c0-3.212,2.604-5.815,5.815-5.815C205.419,159.663,208.022,162.266,208.022,165.478z"/>
			<polygon style="fill:#F0F5F7;" points="208.635,194.317 195.778,194.317 198.646,168.603 205.767,168.603 			"/>
			<rect x="193.978" y="188.7" style="fill:#DCE8EF;" width="16.457" height="5.617"/>
		</g>
	</g>
</g>
</svg>
